<svg width="1080" height="1080" viewBox="0 0 1080 1080" fill="none" xmlns="http://www.w3.org/2000/svg">
<path d="M545.976 864C545.976 790.5 605.476 731 678.976 731C752.476 731 811.976 790.5 811.976 864" fill="#FF7F41"/>
<path d="M164.476 864C164.476 742.4 263.076 643.7 384.776 643.7C506.476 643.7 605.076 742.4 605.076 864" fill="#FF7F41"/>
<path d="M279.775 971.7C276.575 971.7 273.275 971.4 269.975 970.7C242.875 965.3 225.275 939 230.675 911.9L268.375 721.9L282.875 525.7C284.875 498.2 308.875 477.5 336.375 479.5C363.875 481.5 384.575 505.5 382.575 533L367.875 732.2C367.775 734.2 367.475 736.2 367.075 738.2L328.875 931.2C323.975 955.2 303.075 971.7 279.775 971.7Z" fill="#2C2A29"/>
<path d="M430.475 977C404.475 977 382.475 956.9 380.675 930.5L356.075 582.9C354.175 555.4 374.875 531.4 402.475 529.5C430.075 527.6 453.975 548.3 455.875 575.9L480.475 923.5C482.375 951 461.675 975 434.075 976.9C432.775 977 431.675 977 430.475 977Z" fill="#2C2A29"/>
<path d="M416.575 442.5C467.375 447.3 527.275 427.4 570.375 391.5L416.575 442.5Z" fill="#59CBE8"/>
<path d="M432.075 467.2C426.075 467.2 420.175 466.9 414.275 466.4C401.075 465.2 391.375 453.4 392.675 440.2C393.875 427 405.675 417.3 418.875 418.6C463.375 422.8 516.775 404.9 555.075 373.1C565.275 364.6 580.375 366 588.875 376.2C597.375 386.4 595.975 401.5 585.775 410C542.375 446.1 484.975 467.2 432.075 467.2Z" fill="#59CBE8"/>
<path d="M461.475 464C492.375 459.2 523.575 449.8 553.175 436.4L461.475 464Z" fill="#59CBE8"/>
<path d="M461.475 478C454.675 478 448.775 473.1 447.675 466.2C446.475 458.6 451.675 451.4 459.375 450.2C489.175 445.5 518.875 436.6 547.575 423.7C554.675 420.5 562.875 423.7 566.075 430.7C569.275 437.8 566.075 446 559.075 449.2C528.075 463.1 496.075 472.8 463.775 477.8C462.975 477.9 462.175 478 461.475 478Z" fill="#FF7F41"/>
<path d="M299.375 333.601L239.275 599.801L470.175 593.401C473.275 532.501 468.175 437.601 430.575 384.201C375.275 305.601 299.375 333.601 299.375 333.601Z" fill="#9063CD"/>
<path d="M318.175 423.8C312.975 423.8 307.975 420.8 305.575 415.8C302.275 408.8 305.275 400.5 312.275 397.3C313.775 396.6 315.575 395.8 317.475 394.9C323.275 392.3 336.875 386.1 340.175 382.6C341.275 381.4 342.975 379.6 340.175 375C339.075 373.3 338.075 371.6 331.075 374.3C323.875 377 315.875 373.3 313.175 366C310.475 358.8 314.175 350.8 321.475 348.1C339.575 341.4 355.175 345.9 364.075 360.4C372.575 374.3 371.375 390 360.875 401.4C354.275 408.5 342.675 414.2 329.175 420.3C327.375 421.1 325.775 421.8 324.375 422.5C322.175 423.3 320.175 423.8 318.175 423.8Z" fill="#9063CD"/>
<path d="M181.975 564.601C179.375 564.601 176.675 564.201 173.975 563.201C161.475 558.901 154.975 545.201 159.375 532.701C165.575 515.001 173.375 498.001 182.775 482.001C215.275 426.301 265.875 381.901 325.375 356.901C337.575 351.801 351.675 357.501 356.775 369.801C361.875 382.001 356.175 396.101 343.875 401.201C293.975 422.101 251.475 459.401 224.275 506.201C216.475 519.601 209.875 533.801 204.675 548.601C201.175 558.501 191.875 564.601 181.975 564.601Z" fill="#F5B6CD"/>
<path d="M202.876 471.201C200.176 471.201 197.476 470.401 195.076 468.801C188.676 464.501 187.076 455.801 191.476 449.401C223.676 402.301 272.976 364.701 326.676 346.201C333.976 343.701 341.876 347.601 344.376 354.801C346.876 362.101 342.976 370.001 335.776 372.501C287.576 389.101 243.376 422.801 214.476 465.101C211.676 469.101 207.376 471.201 202.876 471.201Z" fill="#00C389"/>
<path d="M405.158 297.121C425.785 277.376 425.045 243.129 403.505 220.627C381.966 198.125 347.783 195.89 327.157 215.634C306.53 235.379 307.27 269.626 328.809 292.128C350.349 314.63 384.531 316.865 405.158 297.121Z" fill="#B28038"/>
<path d="M569.576 378.4L591.176 389.1C596.376 391.6 602.576 389.5 605.076 384.4L631.676 330.6C634.176 325.4 632.076 319.2 626.976 316.7L605.376 306C600.176 303.5 593.976 305.6 591.476 310.7L564.876 364.5C562.276 369.6 564.476 375.9 569.576 378.4Z" fill="#FDDA24"/>
<path d="M595.776 390.8C594.176 390.8 592.476 390.4 590.876 389.7L569.276 379C563.776 376.3 561.576 369.7 564.276 364.2L590.876 310.4C593.576 304.9 600.176 302.7 605.676 305.4L627.276 316.1C629.876 317.4 631.876 319.7 632.876 322.5C633.776 325.3 633.576 328.3 632.276 330.9L605.676 384.7C603.776 388.6 599.876 390.8 595.776 390.8ZM569.876 377.8L591.476 388.5C596.276 390.9 602.176 388.9 604.576 384.1L631.176 330.3C632.376 328 632.476 325.3 631.676 322.8C630.876 320.3 629.076 318.3 626.776 317.2L605.176 306.5C600.376 304.1 594.476 306.1 592.076 310.9L565.476 364.7C564.276 367 564.176 369.7 564.976 372.2C565.776 374.7 567.576 376.7 569.876 377.8Z" fill="#FDDA24"/>
<path d="M885.275 313.7H839.975C836.875 313.7 834.375 311.2 834.375 308.1C834.375 305 836.875 302.5 839.975 302.5H879.775V262.7C879.775 259.6 882.275 257.1 885.375 257.1C888.475 257.1 890.975 259.6 890.975 262.7V308.1C890.875 311.2 888.375 313.7 885.275 313.7Z" fill="#00C389"/>
<path d="M720.875 194.6C717.775 194.6 715.275 192.1 715.275 189V143.7C715.275 140.6 717.775 138.1 720.875 138.1H766.175C769.275 138.1 771.775 140.6 771.775 143.7C771.775 146.8 769.275 149.3 766.175 149.3H726.375V189.1C726.475 192.1 723.975 194.6 720.875 194.6Z" fill="#FDDA24"/>
<path d="M766.275 313.7H720.975C717.875 313.7 715.375 311.2 715.375 308.1V262.7C715.375 259.6 717.875 257.1 720.975 257.1C724.075 257.1 726.575 259.6 726.575 262.7V302.5H766.375C769.475 302.5 771.975 305 771.975 308.1C771.975 311.2 769.375 313.7 766.275 313.7Z" fill="#59CBE8"/>
<path d="M885.275 194.6C882.175 194.6 879.675 192.1 879.675 189V149.3H839.975C836.875 149.3 834.375 146.8 834.375 143.7C834.375 140.6 836.875 138.1 839.975 138.1H885.375C888.475 138.1 890.975 140.6 890.975 143.7V189.1C890.875 192.1 888.375 194.6 885.275 194.6Z" fill="#F5B6CD"/>
<path d="M837.875 216C834.775 216 832.275 213.5 832.275 210.4V189.1C832.275 186 834.775 183.5 837.875 183.5C840.975 183.5 843.475 186 843.475 189.1V210.5C843.375 213.5 840.875 216 837.875 216Z" fill="#59CBE8"/>
<path d="M766.276 216C763.176 216 760.676 213.5 760.676 210.4V189.1C760.676 186 763.176 183.5 766.276 183.5C769.376 183.5 771.876 186 771.876 189.1V210.5C771.776 213.5 769.376 216 766.276 216Z" fill="#00C389"/>
<path d="M802.275 281.1C801.475 281.1 800.775 281.1 799.975 281C785.875 280.3 775.975 273.4 771.375 269.4C769.075 267.4 768.875 263.9 770.875 261.6C772.875 259.3 776.375 259.1 778.675 261.1C782.175 264.2 789.775 269.5 800.475 270C813.475 270.7 822.575 264 825.875 261.1C828.175 259.1 831.675 259.3 833.675 261.6C835.675 263.9 835.475 267.4 833.175 269.4C829.075 273 818.075 281.1 802.275 281.1Z" fill="#FF7F41"/>
<path d="M807.675 248.8H795.975C794.375 248.8 792.775 248.1 791.775 246.9C790.675 245.7 790.275 244 790.475 242.4L796.775 202.3C797.275 199.3 800.075 197.2 803.175 197.7C806.175 198.2 808.275 201 807.775 204.1L802.475 237.8H807.575C810.675 237.8 813.175 240.3 813.175 243.4C813.175 246.5 810.675 248.8 807.675 248.8Z" fill="#9063CD"/>
<path d="M638.276 364.5C636.376 364.5 634.476 363.5 633.476 361.7C632.276 359.6 632.576 356.9 634.276 355.1L680.676 306.1V140C680.676 119.6 697.276 103 717.676 103H885.976C906.376 103 922.976 119.6 922.976 140V308.4C922.976 328.8 906.376 345.4 885.976 345.4H718.276L639.476 364.4C639.076 364.5 638.676 364.5 638.276 364.5ZM717.676 114.1C703.376 114.1 691.776 125.7 691.776 140V308.4C691.776 309.8 691.276 311.2 690.276 312.2L655.276 349.2L716.376 334.4C716.776 334.3 717.276 334.2 717.676 334.2H885.976C900.276 334.2 911.876 322.6 911.876 308.3V140C911.876 125.7 900.276 114.1 885.976 114.1H717.676Z" fill="#FDDA24"/>
</svg>
